<svg width="1200" height="630" xmlns="http://www.w3.org/2000/svg"><defs><linearGradient id="a" gradientTransform="rotate(90)"><stop offset="5%" stop-color="#0a3e1c"/><stop offset="95%" stop-color="#476e54"/></linearGradient><linearGradient id="b" gradientTransform="rotate(90)"><stop offset="5%" stop-color="#137b38"/><stop offset="95%" stop-color="#4e9c69"/></linearGradient><linearGradient id="c" gradientTransform="rotate(90)"><stop offset="5%" stop-color="#1db954"/><stop offset="95%" stop-color="#55ca7e"/></linearGradient><linearGradient id="d" gradientTransform="rotate(90)"><stop offset="5%" stop-color="#1aa94c"/><stop offset="95%" stop-color="#53be78"/></linearGradient><linearGradient id="e" gradientTransform="rotate(90)"><stop offset="5%" stop-color="#179845"/><stop offset="95%" stop-color="#51b173"/></linearGradient><linearGradient id="f" gradientTransform="rotate(90)"><stop offset="5%" stop-color="#14883d"/><stop offset="95%" stop-color="#4ea56d"/></linearGradient></defs><path d="M0 0h1200v630H0z"/><path d="M0 90c26.487 2.94 52.975 5.878 81 6 28.025.122 57.589-2.574 86-6s55.67-7.581 83-10c27.33-2.419 54.729-3.1 87-3 32.271.1 69.414.981 97 7s45.616 17.176 75 20c29.384 2.824 70.123-2.684 98-6 27.877-3.316 42.891-4.44 71-8 28.109-3.56 69.312-9.555 99-10 29.688-.445 47.86 4.661 74 4 26.14-.661 60.244-7.089 92-7 31.756.089 61.161 6.694 89 8s54.11-2.687 85 0 66.397 12.053 81 14c14.603 1.947 8.301-3.527 42-9l-40 540H0Z" fill="url(#a)"/><path d="M0 180c30.529 2.923 61.057 5.846 89 5 27.943-.846 53.3-5.462 81-7 27.7-1.538 57.741.002 88-3s60.735-10.545 90-9 57.32 12.178 84 19c26.68 6.822 51.984 9.832 81 6 29.016-3.832 61.743-14.506 91-15 29.257-.494 55.042 9.19 82 7 26.958-2.19 55.089-16.258 85-17 29.911-.742 61.604 11.84 90 15s53.496-3.1 81-8c27.504-4.9 57.414-8.437 86-9 28.586-.563 55.85 1.848 88 7s69.186 13.043 84 15c14.814 1.957 7.407-2.022 40-6l-40 450H0Z" fill="url(#b)"/><path d="M0 270c31.076-6.052 62.152-12.103 89-7s49.466 21.361 76 19c26.534-2.361 56.982-23.342 86-26 29.018-2.658 56.607 13.006 87 21s63.591 8.32 91 4 49.028-13.284 78-14c28.972-.716 65.298 6.815 95 7 29.702.185 52.78-6.975 80-10 27.22-3.025 58.585-1.915 89-4s59.883-7.366 90-3c30.117 4.366 60.885 18.377 88 23 27.115 4.623 50.577-.142 78-4 27.423-3.858 58.806-6.808 93-6 34.194.808 71.198 5.374 85 6 13.802.626 4.4-2.687 35-6l-40 360H0Z" fill="url(#c)"/><path d="M0 360c25.516 6.556 51.032 13.112 81 8 29.968-5.112 64.388-21.892 94-24 29.612-2.108 54.414 10.457 81 18 26.586 7.543 54.954 10.065 84 5 29.046-5.065 58.768-17.716 89-20 30.232-2.284 60.973 5.799 89 10s53.339 4.521 81 5c27.661.479 57.673 1.116 88-3 30.327-4.116 60.971-12.984 90-15 29.029-2.016 56.442 2.819 82 10s49.26 16.709 80 16c30.74-.709 68.518-11.654 96-15s44.668.907 75 5 73.81 8.027 91 8c17.19-.027 8.095-4.013 39-8l-40 270H0Z" fill="url(#d)"/><path d="M0 450c26.712-1.14 53.425-2.279 83-2 29.575.279 62.014 1.975 93 2 30.986.025 60.52-1.622 87-5 26.48-3.378 49.909-8.489 79-10 29.091-1.511 63.845.576 92 6s49.71 14.183 75 15c25.29.817 54.315-6.308 84-6 29.685.308 60.031 8.05 89 5 28.969-3.05 56.56-16.89 84-21 27.44-4.11 54.73 1.512 86 9 31.27 7.488 66.523 16.844 94 21 27.477 4.156 47.18 3.114 75-5s63.76-23.3 99-24c35.24-.7 69.783 13.086 83 18 13.217 4.914 5.108.957 37-3l-40 180H0Z" fill="url(#e)"/><path d="M0 540c24.817 1.875 49.633 3.75 79 2 29.367-1.75 63.283-7.126 93-9 29.717-1.874 55.235-.248 83 1s57.776 2.116 85 0c27.224-2.116 51.662-7.217 81-5 29.338 2.217 63.575 11.752 95 11 31.425-.752 60.036-11.79 86-10 25.964 1.79 49.28 16.41 79 20s65.842-3.85 97-5 57.351 3.99 85 2c27.649-1.99 56.754-11.11 84-10 27.246 1.11 52.633 12.452 78 13 25.367.548 50.714-9.699 82-16s68.51-8.658 85-7c16.49 1.658 12.245 7.329 48 13l-40 90H0Z" fill="url(#f)"/></svg>